<svg width="106" height="33" viewBox="0 0 106 33" fill="none" xmlns="http://www.w3.org/2000/svg">
<g opacity="0.5">
<path d="M15 15.0909L16 1V17.9373L15 32V15.0909Z" fill="url(#paint0_linear)"/>
<path d="M16 1L15.2247 0.944977C15.2543 0.527465 15.6092 0.208391 16.0275 0.223215C16.4458 0.238039 16.7773 0.581438 16.7773 1L16 1ZM15 15.0909H14.2227V15.0634L14.2247 15.0359L15 15.0909ZM15 32L15.7753 32.0551C15.7456 32.4726 15.3907 32.7916 14.9724 32.7768C14.5541 32.7619 14.2227 32.4185 14.2227 32H15ZM16 17.9373H16.7773C16.7773 17.9557 16.7766 17.9741 16.7753 17.9924L16 17.9373ZM16.7753 1.05502L15.7753 15.1459L14.2247 15.0359L15.2247 0.944977L16.7753 1.05502ZM15.7773 15.0909V32H14.2227V15.0909H15.7773ZM14.2247 31.9449L15.2247 17.8822L16.7753 17.9924L15.7753 32.0551L14.2247 31.9449ZM15.2227 17.9373V1H16.7773V17.9373H15.2227Z" fill="url(#paint1_linear)"/>
</g>
<g opacity="0.5">
<path d="M15 15.0909L14 1V17.9373L15 32V15.0909Z" fill="url(#paint2_linear)"/>
<path d="M14 1L14.7753 0.944977C14.7457 0.527465 14.3908 0.208391 13.9725 0.223215C13.5542 0.238039 13.2227 0.581438 13.2227 1L14 1ZM15 15.0909H15.7773V15.0634L15.7753 15.0359L15 15.0909ZM15 32L14.2247 32.0551C14.2544 32.4726 14.6093 32.7916 15.0276 32.7768C15.4459 32.7619 15.7773 32.4185 15.7773 32H15ZM14 17.9373H13.2227C13.2227 17.9557 13.2234 17.9741 13.2247 17.9924L14 17.9373ZM13.2247 1.05502L14.2247 15.1459L15.7753 15.0359L14.7753 0.944977L13.2247 1.05502ZM14.2227 15.0909V32H15.7773V15.0909H14.2227ZM15.7753 31.9449L14.7753 17.8821L13.2247 17.9924L14.2247 32.0551L15.7753 31.9449ZM14.7773 17.9373V1H13.2227V17.9373H14.7773Z" fill="url(#paint3_linear)"/>
</g>
<g opacity="0.7">
<path d="M15 15.6364L21 2V18.3909L15 32V15.6364Z" fill="url(#paint4_linear)"/>
<path d="M21 2L20.2886 1.68696C20.4366 1.35046 20.8002 1.16371 21.1599 1.23936C21.5197 1.31501 21.7773 1.63237 21.7773 2L21 2ZM15 15.6364H14.2227V15.4729L14.2886 15.3233L15 15.6364ZM15 32L15.7112 32.3136C15.563 32.6499 15.1994 32.8363 14.8398 32.7606C14.4801 32.6848 14.2227 32.3675 14.2227 32H15ZM21 18.3909H21.7773C21.7773 18.4989 21.7548 18.6057 21.7112 18.7045L21 18.3909ZM21.7114 2.31304L15.7114 15.9494L14.2886 15.3233L20.2886 1.68696L21.7114 2.31304ZM15.7773 15.6364V32H14.2227V15.6364H15.7773ZM14.2888 31.6864L20.2888 18.0774L21.7112 18.7045L15.7112 32.3136L14.2888 31.6864ZM20.2227 18.3909V2H21.7773V18.3909H20.2227Z" fill="url(#paint5_linear)"/>
</g>
<g opacity="0.7">
<path d="M15 15.6364L9 2V18.3909L15 32V15.6364Z" fill="url(#paint6_linear)"/>
<path d="M9 2L9.71145 1.68696C9.56339 1.35046 9.19982 1.16371 8.84006 1.23936C8.48029 1.31501 8.22273 1.63237 8.22273 2L9 2ZM15 15.6364H15.7773V15.4729L15.7114 15.3233L15 15.6364ZM15 32L14.2888 32.3136C14.437 32.6499 14.8006 32.8363 15.1602 32.7606C15.5199 32.6848 15.7773 32.3675 15.7773 32H15ZM9 18.3909H8.22273C8.22273 18.4989 8.24522 18.6057 8.28878 18.7045L9 18.3909ZM8.28855 2.31304L14.2886 15.9494L15.7114 15.3233L9.71145 1.68696L8.28855 2.31304ZM14.2227 15.6364V32H15.7773V15.6364H14.2227ZM15.7112 31.6864L9.71122 18.0773L8.28878 18.7045L14.2888 32.3136L15.7112 31.6864ZM9.77727 18.3909V2H8.22273V18.3909H9.77727Z" fill="url(#paint7_linear)"/>
</g>
<g opacity="0.9">
<path d="M15 15.2335L25 4V20.7944L15 32V15.2335Z" fill="url(#paint8_linear)"/>
<path d="M25 4L24.4194 3.48319C24.6339 3.24222 24.975 3.15881 25.2765 3.27357C25.578 3.38832 25.7773 3.6774 25.7773 4H25ZM15 15.2335H14.2227V14.9377L14.4194 14.7167L15 15.2335ZM15 32L15.5799 32.5175C15.3652 32.7581 15.0243 32.8411 14.7231 32.7263C14.4218 32.6114 14.2227 32.3224 14.2227 32H15ZM25 20.7944H25.7773C25.7773 20.9853 25.707 21.1695 25.5799 21.3119L25 20.7944ZM25.5806 4.51681L15.5806 15.7503L14.4194 14.7167L24.4194 3.48319L25.5806 4.51681ZM15.7773 15.2335V32H14.2227V15.2335H15.7773ZM14.4201 31.4825L24.4201 20.2769L25.5799 21.3119L15.5799 32.5175L14.4201 31.4825ZM24.2227 20.7944V4H25.7773V20.7944H24.2227Z" fill="url(#paint9_linear)"/>
</g>
<g opacity="0.9">
<path d="M15 15.1832L5 4V20.8448L15 32V15.1832Z" fill="url(#paint10_linear)"/>
<path d="M5 4L5.57941 3.48189C5.36458 3.24165 5.02378 3.1589 4.7227 3.27388C4.42162 3.38886 4.22273 3.67771 4.22273 4H5ZM15 15.1832H15.7773V14.8863L15.5794 14.6651L15 15.1832ZM15 32L14.4212 32.5188C14.6362 32.7587 14.9769 32.8411 15.2778 32.726C15.5786 32.6108 15.7773 32.3221 15.7773 32H15ZM5 20.8448H4.22273C4.22273 21.0363 4.29342 21.2211 4.42124 21.3637L5 20.8448ZM4.42059 4.51811L14.4206 15.7013L15.5794 14.6651L5.57941 3.48189L4.42059 4.51811ZM14.2227 15.1832V32H15.7773V15.1832H14.2227ZM15.5788 31.4812L5.57876 20.326L4.42124 21.3637L14.4212 32.5188L15.5788 31.4812ZM5.77727 20.8448V4H4.22273V20.8448H5.77727Z" fill="url(#paint11_linear)"/>
</g>
<path d="M1 23.6944V7L15 15.3611L29 7V23.6667L15 32L1 23.6944Z" fill="url(#paint12_linear)"/>
<path d="M15 32L1 23.6944L1 7L15 15.3611M15 32L29 23.6667V7L15 15.3611M15 32V15.3611" stroke="url(#paint13_linear)" stroke-width="1.55455" stroke-linecap="round" stroke-linejoin="round"/>
<path opacity="0.4" d="M15 28L15 17" stroke="white" stroke-width="1.03636" stroke-linecap="round" stroke-linejoin="round"/>
<path d="M44.3247 23.9106C43.1081 23.9106 42.0165 23.6415 41.0499 23.1032C40.0999 22.5649 39.3499 21.8227 38.8 20.8766C38.2667 19.9142 38 18.805 38 17.5489C38 16.2929 38.2667 15.1918 38.8 14.2457C39.3499 13.2833 40.0999 12.533 41.0499 11.9947C42.0165 11.4564 43.1081 11.1872 44.3247 11.1872C45.858 11.1872 47.1413 11.5787 48.1746 12.3617C49.1157 13.0635 49.7556 13.9882 50.0941 15.1356C50.1552 15.3423 49.9947 15.5426 49.7792 15.5426H47.6876C47.5331 15.5426 47.4005 15.4365 47.3499 15.2905C47.1598 14.7412 46.818 14.3033 46.3247 13.9766C45.758 13.6014 45.0914 13.4138 44.3247 13.4138C43.6748 13.4138 43.0748 13.577 42.5248 13.9032C41.9748 14.2131 41.5332 14.678 41.1999 15.2979C40.8666 15.9014 40.6999 16.6518 40.6999 17.5489C40.6999 18.4461 40.8666 19.2046 41.1999 19.8245C41.5332 20.428 41.9748 20.8929 42.5248 21.2191C43.0748 21.5454 43.6748 21.7085 44.3247 21.7085C45.0914 21.7085 45.758 21.5209 46.3247 21.1457C46.8192 20.8183 47.1614 20.3729 47.3513 19.8094C47.4008 19.6623 47.5339 19.5553 47.6891 19.5553H49.7821C49.9967 19.5553 50.157 19.7539 50.097 19.96C49.7712 21.0795 49.1388 21.9968 48.1996 22.7117C47.1496 23.511 45.858 23.9106 44.3247 23.9106Z" fill="#682CDA"/>
<path d="M56.3983 23.9106C54.8983 23.9106 53.7151 23.4539 52.8484 22.5404C51.9985 21.627 51.5735 20.2649 51.5735 18.4543V11.8174C51.5735 11.6315 51.7241 11.4809 51.91 11.4809H53.8868C54.0727 11.4809 54.2234 11.6315 54.2234 11.8174V18.1851C54.2234 20.534 55.2067 21.7085 57.1733 21.7085C58.1565 21.7085 58.9648 21.366 59.5982 20.6809C60.2315 19.9957 60.5481 19.017 60.5481 17.7447V11.8174C60.5481 11.6315 60.6988 11.4809 60.8846 11.4809H62.8615C63.0473 11.4809 63.198 11.6315 63.198 11.8174V23.2805C63.198 23.4664 63.0473 23.617 62.8615 23.617H61.1545C60.9808 23.617 60.8357 23.4849 60.8194 23.312L60.7564 22.6405C60.7249 22.3052 60.2193 22.1889 59.9919 22.4373C59.6962 22.7605 59.3483 23.0395 58.9482 23.2745C58.2149 23.6986 57.3649 23.9106 56.3983 23.9106Z" fill="#682CDA"/>
<path d="M72.2937 23.9106C71.3271 23.9106 70.4688 23.7231 69.7188 23.3479C69.2637 23.115 68.8664 22.8225 68.5268 22.4702C68.3102 22.2456 67.8819 22.3457 67.8363 22.6544L67.7364 23.3297C67.712 23.4948 67.5703 23.617 67.4035 23.617H65.6555C65.4697 23.617 65.319 23.4664 65.319 23.2805V6.33652C65.319 6.15067 65.4697 6 65.6555 6H67.6324C67.8182 6 67.9689 6.15067 67.9689 6.33652V12.2981C67.9689 12.627 68.4308 12.7888 68.6725 12.5657C68.9496 12.3097 69.2651 12.0705 69.6188 11.8479C70.3188 11.4074 71.2188 11.1872 72.3187 11.1872C73.5187 11.1872 74.577 11.4645 75.4936 12.0191C76.4102 12.5738 77.1269 13.3323 77.6435 14.2947C78.1768 15.2571 78.4435 16.35 78.4435 17.5734C78.4435 18.7968 78.1768 19.8897 77.6435 20.8521C77.1269 21.7982 76.4102 22.5486 75.4936 23.1032C74.577 23.6415 73.5104 23.9106 72.2937 23.9106ZM71.8438 21.6596C72.977 21.6596 73.9103 21.2844 74.6436 20.534C75.3769 19.7674 75.7436 18.7723 75.7436 17.5489C75.7436 16.7496 75.5769 16.0401 75.2436 15.4202C74.9103 14.8004 74.452 14.3191 73.8687 13.9766C73.2854 13.6177 72.6104 13.4383 71.8438 13.4383C70.7105 13.4383 69.7772 13.8216 69.0439 14.5883C68.3272 15.355 67.9689 16.3418 67.9689 17.5489C67.9689 18.7723 68.3272 19.7674 69.0439 20.534C69.7772 21.2844 70.7105 21.6596 71.8438 21.6596Z" fill="#682CDA"/>
<path d="M87.0344 23.9106C86.0677 23.9106 85.2094 23.7231 84.4595 23.3479C84.0043 23.115 83.607 22.8225 83.2674 22.4702C83.0508 22.2456 82.6225 22.3457 82.5769 22.6544L82.477 23.3297C82.4526 23.4948 82.311 23.617 82.1441 23.617H80.3962C80.2103 23.617 80.0596 23.4664 80.0596 23.2805V6.33652C80.0596 6.15067 80.2103 6 80.3962 6H82.373C82.5589 6 82.7095 6.15067 82.7095 6.33652V12.2981C82.7095 12.627 83.1714 12.7888 83.4131 12.5657C83.6902 12.3097 84.0057 12.0705 84.3595 11.8479C85.0594 11.4074 85.9594 11.1872 87.0594 11.1872C88.2593 11.1872 89.3176 11.4645 90.2342 12.0191C91.1509 12.5738 91.8675 13.3323 92.3841 14.2947C92.9174 15.2571 93.1841 16.35 93.1841 17.5734C93.1841 18.7968 92.9174 19.8897 92.3841 20.8521C91.8675 21.7982 91.1509 22.5486 90.2342 23.1032C89.3176 23.6415 88.251 23.9106 87.0344 23.9106ZM86.5844 21.6596C87.7177 21.6596 88.651 21.2844 89.3843 20.534C90.1176 19.7674 90.4842 18.7723 90.4842 17.5489C90.4842 16.7496 90.3176 16.0401 89.9842 15.4202C89.6509 14.8004 89.1926 14.3191 88.6093 13.9766C88.026 13.6177 87.351 13.4383 86.5844 13.4383C85.4511 13.4383 84.5178 13.8216 83.7845 14.5883C83.0679 15.355 82.7095 16.3418 82.7095 17.5489C82.7095 18.7723 83.0679 19.7674 83.7845 20.534C84.5178 21.2844 85.4511 21.6596 86.5844 21.6596Z" fill="#682CDA"/>
<path d="M95.7284 29C95.4823 29 95.3195 28.7445 95.4234 28.5214L97.9945 23.002C98.0788 22.8211 97.9467 22.6138 97.7471 22.6138C97.5668 22.6138 97.4034 22.5073 97.3308 22.3422L92.7583 11.9529C92.6604 11.7305 92.8233 11.4809 93.0663 11.4809H95.2024C95.3376 11.4809 95.4597 11.5617 95.5123 11.6862L98.9223 19.7447C99.0372 20.0161 99.4207 20.0192 99.5399 19.7497L103.111 11.6812C103.165 11.5594 103.286 11.4809 103.419 11.4809H105.476C105.721 11.4809 105.884 11.7343 105.783 11.9572L98.0902 28.8033C98.0354 28.9231 97.9158 29 97.784 29H95.7284Z" fill="#682CDA"/>
<defs>
<linearGradient id="paint0_linear" x1="16" y1="1" x2="14.5458" y2="1.02132" gradientUnits="userSpaceOnUse">
<stop stop-color="#7433FF"/>
<stop offset="1" stop-color="#FFA3FD"/>
</linearGradient>
<linearGradient id="paint1_linear" x1="16" y1="1" x2="14.5458" y2="1.02132" gradientUnits="userSpaceOnUse">
<stop stop-color="#7433FF"/>
<stop offset="1" stop-color="#FFA3FD"/>
</linearGradient>
<linearGradient id="paint2_linear" x1="14" y1="1" x2="15.4542" y2="1.02132" gradientUnits="userSpaceOnUse">
<stop stop-color="#7433FF"/>
<stop offset="1" stop-color="#FFA3FD"/>
</linearGradient>
<linearGradient id="paint3_linear" x1="14" y1="1" x2="15.4542" y2="1.02132" gradientUnits="userSpaceOnUse">
<stop stop-color="#7433FF"/>
<stop offset="1" stop-color="#FFA3FD"/>
</linearGradient>
<linearGradient id="paint4_linear" x1="21" y1="2" x2="12.3446" y2="2.78676" gradientUnits="userSpaceOnUse">
<stop stop-color="#7433FF"/>
<stop offset="1" stop-color="#FFA3FD"/>
</linearGradient>
<linearGradient id="paint5_linear" x1="21" y1="2" x2="12.3446" y2="2.78676" gradientUnits="userSpaceOnUse">
<stop stop-color="#7433FF"/>
<stop offset="1" stop-color="#FFA3FD"/>
</linearGradient>
<linearGradient id="paint6_linear" x1="9" y1="2" x2="17.6554" y2="2.78676" gradientUnits="userSpaceOnUse">
<stop stop-color="#7433FF"/>
<stop offset="1" stop-color="#FFA3FD"/>
</linearGradient>
<linearGradient id="paint7_linear" x1="9" y1="2" x2="17.6554" y2="2.78676" gradientUnits="userSpaceOnUse">
<stop stop-color="#7433FF"/>
<stop offset="1" stop-color="#FFA3FD"/>
</linearGradient>
<linearGradient id="paint8_linear" x1="20" y1="9.04" x2="7.22404" y2="24.1609" gradientUnits="userSpaceOnUse">
<stop stop-color="#7433FF"/>
<stop offset="1" stop-color="#FFA3FD"/>
</linearGradient>
<linearGradient id="paint9_linear" x1="20" y1="9.04" x2="7.22404" y2="24.1609" gradientUnits="userSpaceOnUse">
<stop stop-color="#7433FF"/>
<stop offset="1" stop-color="#FFA3FD"/>
</linearGradient>
<linearGradient id="paint10_linear" x1="10" y1="9.04" x2="22.776" y2="24.1609" gradientUnits="userSpaceOnUse">
<stop stop-color="#7433FF"/>
<stop offset="1" stop-color="#FFA3FD"/>
</linearGradient>
<linearGradient id="paint11_linear" x1="10" y1="9.04" x2="22.776" y2="24.1609" gradientUnits="userSpaceOnUse">
<stop stop-color="#7433FF"/>
<stop offset="1" stop-color="#FFA3FD"/>
</linearGradient>
<linearGradient id="paint12_linear" x1="15" y1="11.5" x2="20.8123" y2="33.0729" gradientUnits="userSpaceOnUse">
<stop stop-color="#7433FF"/>
<stop offset="1" stop-color="#FFA3FD"/>
</linearGradient>
<linearGradient id="paint13_linear" x1="15" y1="11.5" x2="20.8123" y2="33.0729" gradientUnits="userSpaceOnUse">
<stop stop-color="#7433FF"/>
<stop offset="1" stop-color="#FFA3FD"/>
</linearGradient>
</defs>
</svg>
